ffmpeg started on 2025-05-12 at 16:21:57
Report written to "D:\Convert\FFMetrics\reports\ssim_report-6.txt"
Log level: 32
Command line:
ffmpeg -hide_banner -nostdin -i "G:\\\xc0\xed\xe8\xec\xe5\\\xce\xed\xe3\xee\xe8\xed\xe3\xe8\\!_35_\xcb\xe5\xf2\xee_2024\\DreamCast\\\xcc\xe0\xeb\xe5\xed\xfc\xea\xe8\xe9 \xe3\xf0\xe0\xe6\xe4\xe0\xed\xe8\xed\\[DC] Shoushimin Series - 10_Telegram_HEVC.mkv" -i "G:\\\xc0\xed\xe8\xec\xe5\\\xce\xed\xe3\xee\xe8\xed\xe3\xe8\\!_35_\xcb\xe5\xf2\xee_2024\\DreamCast\\\xcc\xe0\xeb\xe5\xed\xfc\xea\xe8\xe9 \xe3\xf0\xe0\xe6\xe4\xe0\xed\xe8\xed\\[DC] Shoushimin Series - 10_Telegram.mp4" -lavfi "[0:v]settb=AVTB,setpts=PTS-STARTPTS,format=pix_fmts=yuv420p10,fps=24000/1001,scale=1920:1080:flags=bicubic[main];[1:v]settb=AVTB,setpts=PTS-STARTPTS,format=pix_fmts=yuv420p,fps=24000/1001,scale=1920:1080:flags=bicubic[ref];[main][ref]ssim=eof_action=endall:stats_file='D\\:/Convert/FFMetrics/logs/ssim_logfile-6.txt'" -f null -
Input #0, matroska,webm, from 'G:\Аниме\Онгоинги\!_35_Лето_2024\DreamCast\Маленький гражданин\[DC] Shoushimin Series - 10_Telegram_HEVC.mkv':
  Metadata:
    COMPATIBLE_BRANDS: isomiso2avc1mp41
    MAJOR_BRAND     : isom
    MINOR_VERSION   : 512
    ENCODER         : Lavf61.7.100
  Duration: 00:22:55.70, start: -0.021000, bitrate: 761 kb/s
  Stream #0:0: Video: hevc (Main 10), yuv420p10le(tv, bt709, progressive), 1920x1080 [SAR 1:1 DAR 16:9], 23.98 fps, 23.98 tbr, 1k tbn (default)
      Metadata:
        HANDLER_NAME    : VideoHandler
        VENDOR_ID       : [0][0][0][0]
        ENCODER         : Lavc61.19.100 libx265
        BPS             : 564798
        DURATION        : 00:22:54.539708333
        NUMBER_OF_FRAMES: 32956
        NUMBER_OF_BYTES : 97042212
        _STATISTICS_WRITING_APP: mkvpropedit v66.0.0 ('Josie') 64-bit
        _STATISTICS_WRITING_DATE_UTC: 2025-05-08 09:32:59
        _STATISTICS_TAGS: BPS DURATION NUMBER_OF_FRAMES NUMBER_OF_BYTES
  Stream #0:1: Audio: aac (LC), 48000 Hz, stereo, fltp (default)
      Metadata:
        HANDLER_NAME    : SoundHandler
        VENDOR_ID       : [0][0][0][0]
        ENCODER         : Lavc61.19.100 aac
        BPS             : 192757
        DURATION        : 00:22:55.701000000
        NUMBER_OF_FRAMES: 64487
        NUMBER_OF_BYTES : 33147053
        _STATISTICS_WRITING_APP: mkvpropedit v66.0.0 ('Josie') 64-bit
        _STATISTICS_WRITING_DATE_UTC: 2025-05-08 09:32:59
        _STATISTICS_TAGS: BPS DURATION NUMBER_OF_FRAMES NUMBER_OF_BYTES
Input #1, mov,mp4,m4a,3gp,3g2,mj2, from 'G:\Аниме\Онгоинги\!_35_Лето_2024\DreamCast\Маленький гражданин\[DC] Shoushimin Series - 10_Telegram.mp4':
  Metadata:
    major_brand     : isom
    minor_version   : 512
    compatible_brands: isomiso2avc1mp41
    encoder         : Lavf60.16.100
  Duration: 00:22:55.66, start: 0.000000, bitrate: 2093 kb/s
  Stream #1:0[0x1](und): Video: h264 (High) (avc1 / 0x31637661), yuv420p(tv, bt709, progressive), 1920x1080 [SAR 1:1 DAR 16:9], 1947 kb/s, 23.98 fps, 23.98 tbr, 24k tbn (default)
      Metadata:
        handler_name    : VideoHandler
        vendor_id       : [0][0][0][0]
        encoder         : Lavc60.31.102 h264_qsv
  Stream #1:1[0x2](und): Audio: aac (HE-AACv2) (mp4a / 0x6134706D), 48000 Hz, stereo, fltp, 144 kb/s (default)
      Metadata:
        handler_name    : SoundHandler
        vendor_id       : [0][0][0][0]
Stream mapping:
  Stream #0:0 (hevc) -> settb:default
  Stream #1:0 (h264) -> settb:default
  ssim:default -> Stream #0:0 (wrapped_avframe)
  Stream #0:1 -> #0:1 (aac (native) -> pcm_s16le (native))
Output #0, null, to 'pipe:':
  Metadata:
    COMPATIBLE_BRANDS: isomiso2avc1mp41
    MAJOR_BRAND     : isom
    MINOR_VERSION   : 512
    encoder         : Lavf61.7.100
  Stream #0:0: Video: wrapped_avframe, yuv420p10le(tv, bt709, progressive), 1920x1080 [SAR 1:1 DAR 16:9], q=2-31, 200 kb/s, 23.98 fps, 23.98 tbn
      Metadata:
        encoder         : Lavc61.19.100 wrapped_avframe
  Stream #0:1: Audio: pcm_s16le, 48000 Hz, stereo, s16, 1536 kb/s (default)
      Metadata:
        HANDLER_NAME    : SoundHandler
        VENDOR_ID       : [0][0][0][0]
        _STATISTICS_TAGS: BPS DURATION NUMBER_OF_FRAMES NUMBER_OF_BYTES
        BPS             : 192757
        DURATION        : 00:22:55.701000000
        NUMBER_OF_FRAMES: 64487
        NUMBER_OF_BYTES : 33147053
        _STATISTICS_WRITING_APP: mkvpropedit v66.0.0 ('Josie') 64-bit
        _STATISTICS_WRITING_DATE_UTC: 2025-05-08 09:32:59
        encoder         : Lavc61.19.100 pcm_s16le
frame=  178 fps=0.0 q=-0.0 size=N/A time=00:00:07.42 bitrate=N/A speed=14.3x    frame=  397 fps=380 q=-0.0 size=N/A time=00:00:16.55 bitrate=N/A speed=15.9x    frame=  579 fps=373 q=-0.0 size=N/A time=00:00:24.14 bitrate=N/A speed=15.6x    frame=  818 fps=394 q=-0.0 size=N/A time=00:00:34.11 bitrate=N/A speed=16.4x    frame= 1038 fps=402 q=-0.0 size=N/A time=00:00:43.29 bitrate=N/A speed=16.8x    frame= 1254 fps=404 q=-0.0 size=N/A time=00:00:52.30 bitrate=N/A speed=16.8x    frame= 1451 fps=402 q=-0.0 size=N/A time=00:01:00.51 bitrate=N/A speed=16.8x    frame= 1652 fps=400 q=-0.0 size=N/A time=00:01:08.90 bitrate=N/A speed=16.7x    frame= 1868 fps=403 q=-0.0 size=N/A time=00:01:17.91 bitrate=N/A speed=16.8x    frame= 2098 fps=406 q=-0.0 size=N/A time=00:01:27.50 bitrate=N/A speed=  17x    frame= 2342 fps=412 q=-0.0 size=N/A time=00:01:37.72 bitrate=N/A speed=17.2x    frame= 2622 fps=423 q=-0.0 size=N/A time=00:01:49.35 bitrate=N/A speed=17.7x    frame= 2911 fps=434 q=-0.0 size=N/A time=00:02:01.41 bitrate=N/A speed=18.1x    frame= 3187 fps=441 q=-0.0 size=N/A time=00:02:12.92 bitrate=N/A speed=18.4x    frame= 3465 fps=447 q=-0.0 size=N/A time=00:02:24.51 bitrate=N/A speed=18.7x    frame= 3741 fps=453 q=-0.0 size=N/A time=00:02:36.03 bitrate=N/A speed=18.9x    frame= 4008 fps=457 q=-0.0 size=N/A time=00:02:47.16 bitrate=N/A speed=19.1x    frame= 4289 fps=462 q=-0.0 size=N/A time=00:02:58.88 bitrate=N/A speed=19.3x    frame= 4555 fps=465 q=-0.0 size=N/A time=00:03:09.98 bitrate=N/A speed=19.4x    frame= 4853 fps=470 q=-0.0 size=N/A time=00:03:22.41 bitrate=N/A speed=19.6x    frame= 5127 fps=474 q=-0.0 size=N/A time=00:03:33.83 bitrate=N/A speed=19.7x    frame= 5415 fps=477 q=-0.0 size=N/A time=00:03:45.85 bitrate=N/A speed=19.9x    frame= 5702 fps=481 q=-0.0 size=N/A time=00:03:57.82 bitrate=N/A speed=20.1x    frame= 6002 fps=485 q=-0.0 size=N/A time=00:04:10.33 bitrate=N/A speed=20.2x    frame= 6284 fps=487 q=-0.0 size=N/A time=00:04:22.09 bitrate=N/A speed=20.3x    frame= 6563 fps=489 q=-0.0 size=N/A time=00:04:33.73 bitrate=N/A speed=20.4x    frame= 6849 fps=491 q=-0.0 size=N/A time=00:04:45.66 bitrate=N/A speed=20.5x    frame= 7123 fps=493 q=-0.0 size=N/A time=00:04:57.08 bitrate=N/A speed=20.6x    frame= 7414 fps=495 q=-0.0 size=N/A time=00:05:09.22 bitrate=N/A speed=20.7x    frame= 7697 fps=497 q=-0.0 size=N/A time=00:05:21.02 bitrate=N/A speed=20.7x    frame= 7995 fps=500 q=-0.0 size=N/A time=00:05:33.45 bitrate=N/A speed=20.8x    frame= 8277 fps=502 q=-0.0 size=N/A time=00:05:45.21 bitrate=N/A speed=20.9x    frame= 8570 fps=503 q=-0.0 size=N/A time=00:05:57.44 bitrate=N/A speed=  21x    frame= 8855 fps=505 q=-0.0 size=N/A time=00:06:09.32 bitrate=N/A speed=21.1x    frame= 9141 fps=506 q=-0.0 size=N/A time=00:06:21.25 bitrate=N/A speed=21.1x    frame= 9421 fps=508 q=-0.0 size=N/A time=00:06:32.93 bitrate=N/A speed=21.2x    frame= 9707 fps=509 q=-0.0 size=N/A time=00:06:44.86 bitrate=N/A speed=21.2x    frame= 9996 fps=510 q=-0.0 size=N/A time=00:06:56.91 bitrate=N/A speed=21.3x    frame=10283 fps=511 q=-0.0 size=N/A time=00:07:08.88 bitrate=N/A speed=21.3x    frame=10568 fps=512 q=-0.0 size=N/A time=00:07:20.77 bitrate=N/A speed=21.4x    frame=10851 fps=513 q=-0.0 size=N/A time=00:07:32.57 bitrate=N/A speed=21.4x    frame=11136 fps=514 q=-0.0 size=N/A time=00:07:44.46 bitrate=N/A speed=21.4x    frame=11427 fps=515 q=-0.0 size=N/A time=00:07:56.60 bitrate=N/A speed=21.5x    frame=11680 fps=515 q=-0.0 size=N/A time=00:08:07.15 bitrate=N/A speed=21.5x    frame=11954 fps=515 q=-0.0 size=N/A time=00:08:18.58 bitrate=N/A speed=21.5x    frame=12240 fps=516 q=-0.0 size=N/A time=00:08:30.51 bitrate=N/A speed=21.5x    frame=12505 fps=516 q=-0.0 size=N/A time=00:08:41.56 bitrate=N/A speed=21.5x    frame=12766 fps=516 q=-0.0 size=N/A time=00:08:52.44 bitrate=N/A speed=21.5x    frame=12990 fps=514 q=-0.0 size=N/A time=00:09:01.79 bitrate=N/A speed=21.4x    frame=13194 fps=512 q=-0.0 size=N/A time=00:09:10.29 bitrate=N/A speed=21.3x    frame=13398 fps=509 q=-0.0 size=N/A time=00:09:18.80 bitrate=N/A speed=21.2x    frame=13614 fps=508 q=-0.0 size=N/A time=00:09:27.81 bitrate=N/A speed=21.2x    frame=13863 fps=507 q=-0.0 size=N/A time=00:09:38.20 bitrate=N/A speed=21.1x    frame=14111 fps=507 q=-0.0 size=N/A time=00:09:48.54 bitrate=N/A speed=21.1x    frame=14319 fps=505 q=-0.0 size=N/A time=00:09:57.22 bitrate=N/A speed=21.1x    frame=14589 fps=505 q=-0.0 size=N/A time=00:10:08.48 bitrate=N/A speed=21.1x    frame=14880 fps=506 q=-0.0 size=N/A time=00:10:20.62 bitrate=N/A speed=21.1x    frame=15162 fps=507 q=-0.0 size=N/A time=00:10:32.38 bitrate=N/A speed=21.1x    frame=15449 fps=508 q=-0.0 size=N/A time=00:10:44.35 bitrate=N/A speed=21.2x    frame=15739 fps=509 q=-0.0 size=N/A time=00:10:56.44 bitrate=N/A speed=21.2x    frame=16020 fps=509 q=-0.0 size=N/A time=00:11:08.16 bitrate=N/A speed=21.2x    frame=16305 fps=510 q=-0.0 size=N/A time=00:11:20.05 bitrate=N/A speed=21.3x    frame=16588 fps=510 q=-0.0 size=N/A time=00:11:31.85 bitrate=N/A speed=21.3x    frame=16878 fps=511 q=-0.0 size=N/A time=00:11:43.95 bitrate=N/A speed=21.3x    frame=17152 fps=511 q=-0.0 size=N/A time=00:11:55.38 bitrate=N/A speed=21.3x    frame=17439 fps=512 q=-0.0 size=N/A time=00:12:07.35 bitrate=N/A speed=21.4x    frame=17723 fps=512 q=-0.0 size=N/A time=00:12:19.19 bitrate=N/A speed=21.4x    frame=17987 fps=512 q=-0.0 size=N/A time=00:12:30.20 bitrate=N/A speed=21.4x    frame=18271 fps=513 q=-0.0 size=N/A time=00:12:42.05 bitrate=N/A speed=21.4x    frame=18522 fps=513 q=-0.0 size=N/A time=00:12:52.52 bitrate=N/A speed=21.4x    frame=18772 fps=512 q=-0.0 size=N/A time=00:13:02.94 bitrate=N/A speed=21.4x    frame=18999 fps=511 q=-0.0 size=N/A time=00:13:12.41 bitrate=N/A speed=21.3x    frame=19239 fps=511 q=-0.0 size=N/A time=00:13:22.42 bitrate=N/A speed=21.3x    frame=19522 fps=511 q=-0.0 size=N/A time=00:13:34.23 bitrate=N/A speed=21.3x    frame=19782 fps=511 q=-0.0 size=N/A time=00:13:45.07 bitrate=N/A speed=21.3x    frame=20048 fps=511 q=-0.0 size=N/A time=00:13:56.16 bitrate=N/A speed=21.3x    frame=20333 fps=511 q=-0.0 size=N/A time=00:14:08.05 bitrate=N/A speed=21.3x    frame=20613 fps=512 q=-0.0 size=N/A time=00:14:19.73 bitrate=N/A speed=21.3x    frame=20861 fps=511 q=-0.0 size=N/A time=00:14:30.07 bitrate=N/A speed=21.3x    frame=21130 fps=512 q=-0.0 size=N/A time=00:14:41.29 bitrate=N/A speed=21.3x    frame=21408 fps=512 q=-0.0 size=N/A time=00:14:52.89 bitrate=N/A speed=21.4x    frame=21695 fps=512 q=-0.0 size=N/A time=00:15:04.86 bitrate=N/A speed=21.4x    frame=21961 fps=513 q=-0.0 size=N/A time=00:15:15.95 bitrate=N/A speed=21.4x    frame=22246 fps=513 q=-0.0 size=N/A time=00:15:27.84 bitrate=N/A speed=21.4x    frame=22511 fps=513 q=-0.0 size=N/A time=00:15:38.89 bitrate=N/A speed=21.4x    frame=22787 fps=513 q=-0.0 size=N/A time=00:15:50.40 bitrate=N/A speed=21.4x    frame=23065 fps=513 q=-0.0 size=N/A time=00:16:02.00 bitrate=N/A speed=21.4x    frame=23338 fps=514 q=-0.0 size=N/A time=00:16:13.38 bitrate=N/A speed=21.4x    frame=23632 fps=514 q=-0.0 size=N/A time=00:16:25.65 bitrate=N/A speed=21.5x    frame=23908 fps=515 q=-0.0 size=N/A time=00:16:37.16 bitrate=N/A speed=21.5x    frame=24196 fps=515 q=-0.0 size=N/A time=00:16:49.17 bitrate=N/A speed=21.5x    frame=24473 fps=515 q=-0.0 size=N/A time=00:17:00.72 bitrate=N/A speed=21.5x    frame=24765 fps=516 q=-0.0 size=N/A time=00:17:12.90 bitrate=N/A speed=21.5x    frame=25041 fps=516 q=-0.0 size=N/A time=00:17:24.41 bitrate=N/A speed=21.5x    frame=25328 fps=516 q=-0.0 size=N/A time=00:17:36.38 bitrate=N/A speed=21.5x    frame=25605 fps=517 q=-0.0 size=N/A time=00:17:47.94 bitrate=N/A speed=21.6x    frame=25883 fps=517 q=-0.0 size=N/A time=00:17:59.53 bitrate=N/A speed=21.6x    frame=26163 fps=517 q=-0.0 size=N/A time=00:18:11.21 bitrate=N/A speed=21.6x    frame=26446 fps=518 q=-0.0 size=N/A time=00:18:23.01 bitrate=N/A speed=21.6x    frame=26727 fps=518 q=-0.0 size=N/A time=00:18:34.73 bitrate=N/A speed=21.6x    frame=27013 fps=518 q=-0.0 size=N/A time=00:18:46.66 bitrate=N/A speed=21.6x    frame=27289 fps=518 q=-0.0 size=N/A time=00:18:58.17 bitrate=N/A speed=21.6x    frame=27575 fps=519 q=-0.0 size=N/A time=00:19:10.10 bitrate=N/A speed=21.6x    frame=27851 fps=519 q=-0.0 size=N/A time=00:19:21.61 bitrate=N/A speed=21.6x    frame=28127 fps=519 q=-0.0 size=N/A time=00:19:33.13 bitrate=N/A speed=21.6x    frame=28412 fps=519 q=-0.0 size=N/A time=00:19:45.01 bitrate=N/A speed=21.7x    frame=28684 fps=519 q=-0.0 size=N/A time=00:19:56.36 bitrate=N/A speed=21.7x    frame=28974 fps=520 q=-0.0 size=N/A time=00:20:08.45 bitrate=N/A speed=21.7x    frame=29262 fps=520 q=-0.0 size=N/A time=00:20:20.46 bitrate=N/A speed=21.7x    frame=29547 fps=520 q=-0.0 size=N/A time=00:20:32.35 bitrate=N/A speed=21.7x    frame=29830 fps=521 q=-0.0 size=N/A time=00:20:44.15 bitrate=N/A speed=21.7x    frame=30116 fps=521 q=-0.0 size=N/A time=00:20:56.08 bitrate=N/A speed=21.7x    frame=30392 fps=521 q=-0.0 size=N/A time=00:21:07.59 bitrate=N/A speed=21.7x    frame=30669 fps=521 q=-0.0 size=N/A time=00:21:19.15 bitrate=N/A speed=21.7x    frame=30862 fps=520 q=-0.0 size=N/A time=00:21:27.20 bitrate=N/A speed=21.7x    frame=31021 fps=518 q=-0.0 size=N/A time=00:21:33.83 bitrate=N/A speed=21.6x    frame=31204 fps=517 q=-0.0 size=N/A time=00:21:41.46 bitrate=N/A speed=21.5x    frame=31379 fps=515 q=-0.0 size=N/A time=00:21:48.76 bitrate=N/A speed=21.5x    frame=31550 fps=514 q=-0.0 size=N/A time=00:21:55.89 bitrate=N/A speed=21.4x    frame=31736 fps=512 q=-0.0 size=N/A time=00:22:03.65 bitrate=N/A speed=21.4x    frame=31912 fps=511 q=-0.0 size=N/A time=00:22:10.99 bitrate=N/A speed=21.3x    frame=32112 fps=510 q=-0.0 size=N/A time=00:22:19.33 bitrate=N/A speed=21.3x    frame=32288 fps=508 q=-0.0 size=N/A time=00:22:26.67 bitrate=N/A speed=21.2x    frame=32491 fps=508 q=-0.0 size=N/A time=00:22:35.14 bitrate=N/A speed=21.2x    frame=32699 fps=507 q=-0.0 size=N/A time=00:22:43.82 bitrate=N/A speed=21.1x    frame=32873 fps=505 q=-0.0 size=N/A time=00:22:51.07 bitrate=N/A speed=21.1x    [Parsed_ssim_10 @ 00000287e2d3bc80] SSIM Y:0.996338 (24.362267) U:0.995318 (23.295280) V:0.995382 (23.355719) All:0.996008 (23.988454)
[out#0/null @ 00000287d59a4dc0] video:14161KiB audio:257948KiB subtitle:0KiB other streams:0KiB global headers:0KiB muxing overhead: unknown
frame=32956 fps=505 q=-0.0 Lsize=N/A time=00:22:54.53 bitrate=N/A speed=21.1x    
